  <svg width="175" height="101" viewBox="0 0 175 101" fill="none" xmlns="http://www.w3.org/2000/svg">
    <linearGradient id="gradient">
      <stop offset="0" stop-color="gold"></stop>
      <stop offset="33%" stop-color="orange"></stop>
      <stop offset="66%" stop-color="darkorange"></stop>
  </linearGradient>
<path d="M67.8838 54.9925V80.4889M18.1987 23.9968H15.81C14.9341 23.9083 13.514 23.0771 13.514 23.0771C13.514 23.0771 11.8514 22.0939 11.5103 20.9972C11.2793 20.2546 11.0326 19.8025 11.0326 18.9975C11.0326 18.1925 11.2505 17.7554 11.5103 16.9978C11.8089 16.127 11.9391 15.5776 12.5132 14.874C13.0915 14.1653 13.5231 13.7642 14.3768 13.4983C14.9327 13.325 16.2877 13.4983 16.2877 13.4983C16.2877 13.4983 15.85 11.8243 16.2877 10.9986C16.6717 10.2743 17.1048 10.0188 17.721 9.49881C18.2446 9.05692 18.5431 8.7933 19.1542 8.49895C20.1851 8.00238 20.8888 7.91186 22.0206 7.99902C23.1974 8.08965 25.3648 9.49881 25.3648 9.49881C25.3648 9.49881 26.4901 6.99759 27.7535 5.9993C28.2904 5.57511 28.5748 5.29167 29.1867 4.99944C29.8866 4.66527 31.0977 4.49951 31.0977 4.49951C31.0977 4.49951 31.9781 4.40816 32.5309 4.49951C33.1137 4.5958 32.9358 4.57499 33.4864 4.79662C34.6545 5.26677 36.3529 6.59352 36.3529 6.59352L37.3083 5.49937C37.3083 5.49937 39.2193 3.49965 39.6971 2.99972C40.1748 2.49979 41.608 1.99986 41.608 1.99986C41.608 1.99986 42.4724 1.66355 43.0413 1.49993C44.1355 1.1852 44.7728 1 45.9077 1C47.0426 1 47.7114 1.0834 48.7741 1.49993C50.0341 1.99372 50.6591 2.53676 51.6406 3.49965C52.8115 4.64831 54.0293 6.59352 54.0293 6.59352L54.9848 5.9993C54.9848 5.9993 55.7478 5.44012 56.418 4.99944C57.6916 4.16203 58.7599 4.21867 60.2399 4.49951C61.2285 4.6871 61.7493 4.99084 62.6286 5.49937C63.2174 5.83985 63.5324 6.06499 64.0619 6.49923C65.4157 7.60961 66.4139 8.28116 66.9283 9.99875C67.3189 11.3028 66.9283 13.4983 66.9283 13.4983C66.9283 13.4983 68.3657 12.9983 69.317 12.9983C70.2684 12.9983 70.846 13.0721 71.7057 13.4983C72.898 14.0892 73.4567 14.7894 74.0944 15.9979C75.0009 17.7155 75.3455 19.2098 74.5722 20.9972C74.0281 22.2548 73.3468 22.8457 72.1835 23.4969C70.6937 24.3307 67.8838 23.9968 67.8838 23.9968M18.1987 23.9968V31.4957M18.1987 23.9968C18.1987 23.9968 20.5874 23.9968 22.4984 23.9968C24.4093 23.9968 24.4093 24.4967 24.3902 25.8999C24.3711 27.303 24.3343 41.264 24.4093 46.4937C24.4392 48.5722 25.4396 49.9369 26.798 50.6453M67.8838 23.9968C67.8838 23.9968 67.8838 31.9189 67.8838 36.995M67.8838 23.9968H55.4625C53.9694 23.8609 53.4384 24.0804 53.5516 25.4966V31.4957V34.9953C53.5516 34.9953 53.5516 36.1046 53.5516 36.4951M18.1987 31.4957C18.1987 31.4957 11.5103 31.4957 7.21064 31.4957C2.91097 31.4957 1.00001 34.4953 1.00001 38.4948V59.9918M18.1987 31.4957V36.995M18.1987 31.4957V67.4907M18.1987 36.995H8.64387C7.62651 37.04 7.21064 37.4949 6.7329 37.9948C6.25516 38.4948 5.77719 38.96 5.77742 39.9946C5.77742 39.9946 5.77742 58.492 5.77742 59.9918C5.77742 61.4916 6.7329 61.9915 8.64387 61.9915C10.5548 61.9915 18.1987 61.9915 18.1987 61.9915M18.1987 36.995V61.9915M18.1987 61.9915V67.4907M18.1987 80.4889V84.4884V85.9881C18.311 86.8957 18.4554 87.365 19.1542 87.9879C19.9635 88.6595 20.4811 88.89 21.5429 88.9877H59.7622H64.0619C64.7988 89.0815 66.2555 88.6266 66.9283 87.9879C67.5613 87.387 67.8838 85.9881 67.8838 85.4882C67.8838 84.9883 67.8838 80.4889 67.8838 80.4889M18.1987 80.4889H67.8838M18.1987 80.4889V67.4907M53.5516 36.4951C55.0441 36.4951 56.8957 36.4951 57.3735 36.4951C57.8512 36.4951 59.7622 36.995 59.7622 38.4948C59.7622 39.9946 59.9437 64.4911 59.7622 69.4905C59.5807 74.4898 52.5961 72.99 52.5961 69.4905C52.5961 65.9909 52.5961 68.4906 52.5961 68.4906V42.4942V39.9204M53.5516 36.4951C53.4622 37.8757 53.1141 39.0296 52.5961 39.9204M43.9967 34.9953C43.9967 34.9953 43.9967 36.995 43.9967 31.4957C43.9967 25.9965 34.4419 26.9964 34.4419 31.4957C34.4419 35.9951 34.4419 40.4945 34.4419 46.4937C34.4419 50.609 29.7656 52.193 26.798 50.6453M43.9967 34.9953V35.9951C45.8868 42.856 50.5574 43.4259 52.5961 39.9204M43.9967 34.9953C42.9893 35.087 41.608 35.8927 41.608 35.8927C41.608 35.8927 40.2411 37.0026 39.6971 38.3923V67.4907C39.6971 67.4907 39.697 62.9763 39.6971 68.4906C39.6971 74.0049 46.3847 72.9151 46.3854 68.4906C46.3861 64.0661 46.3854 41.4944 46.3854 41.4944V40.6183M18.1987 67.4907C14.022 67.5009 8.64387 67.4907 8.64387 67.4907M67.8838 44.4939C67.8838 44.4939 67.8838 48.9933 67.8838 47.9934M33.4864 49.4932C33.4864 49.4932 33.4864 65.9909 33.4864 69.4905C33.4864 72.99 26.798 72.99 26.798 69.4905C26.798 65.9909 26.798 50.6453 26.798 50.6453M67.8838 46.9936V48.1225" stroke="url(#gradient)" stroke-width="2" stroke-linecap="round"/>
<path d="M128.25 22.417V32.0426C125.313 29.1806 122.174 27.0416 118.834 25.6256C115.523 24.2097 111.996 23.5017 108.253 23.5016C100.882 23.5017 95.2387 25.8666 91.3228 30.5965C87.407 35.2964 85.4491 42.1051 85.4491 51.0226C85.4491 59.9101 87.407 66.7188 91.3228 71.4487C95.2387 76.1485 100.882 78.4984 108.253 78.4984C111.996 78.4984 115.523 77.7904 118.834 76.3744C122.174 74.9585 125.313 72.8195 128.25 69.9574V79.4926C125.198 81.6617 121.958 83.2886 118.532 84.3731C115.135 85.4577 111.535 86 107.735 86C97.974 86 90.2863 82.8819 84.6717 76.6456C79.0571 70.3792 76.2498 61.8382 76.2498 51.0226C76.2498 40.1769 79.0571 31.6359 84.6717 25.3996C90.2863 19.1333 97.974 16.0001 107.735 16C111.593 16.0001 115.221 16.5424 118.619 17.6269C122.045 18.6814 125.255 20.2781 128.25 22.417Z" fill="url(#gradient)"/>
<path d="M105.334 33.4555L97.5514 62.3687H95.0044L102.787 33.4555H105.334ZM128.443 42.1342H125.518C125.345 41.2931 125.043 40.5541 124.61 39.9174C124.186 39.2806 123.667 38.7461 123.054 38.3137C122.449 37.8735 121.776 37.5433 121.037 37.3232C120.299 37.1031 119.528 36.993 118.726 36.993C117.264 36.993 115.94 37.3625 114.753 38.1014C113.573 38.8404 112.634 39.9292 111.934 41.3677C111.243 42.8063 110.897 44.5711 110.897 46.6622C110.897 48.7532 111.243 50.5181 111.934 51.9566C112.634 53.3952 113.573 54.484 114.753 55.2229C115.94 55.9619 117.264 56.3313 118.726 56.3313C119.528 56.3313 120.299 56.2213 121.037 56.0012C121.776 55.7811 122.449 55.4548 123.054 55.0225C123.667 54.5823 124.186 54.0438 124.61 53.407C125.043 52.7624 125.345 52.0235 125.518 51.1902H128.443C128.223 52.4244 127.822 53.5289 127.24 54.5036C126.658 55.4784 125.935 56.3078 125.07 56.9917C124.205 57.6677 123.235 58.1826 122.158 58.5364C121.089 58.8901 119.945 59.067 118.726 59.067C116.667 59.067 114.835 58.5639 113.231 57.5577C111.628 56.5515 110.366 55.1207 109.446 53.2655C108.527 51.4103 108.067 49.2092 108.067 46.6622C108.067 44.1152 108.527 41.9141 109.446 40.0589C110.366 38.2036 111.628 36.7729 113.231 35.7667C114.835 34.7605 116.667 34.2574 118.726 34.2574C119.945 34.2574 121.089 34.4342 122.158 34.788C123.235 35.1417 124.205 35.6606 125.07 36.3445C125.935 37.0205 126.658 37.846 127.24 38.8207C127.822 39.7877 128.223 40.8921 128.443 42.1342ZM139.866 54.4918V38.9269H142.507V54.4918H139.866ZM133.404 48.03V45.3887H148.969V48.03H133.404ZM161.754 54.4918V38.9269H164.395V54.4918H161.754ZM155.292 48.03V45.3887H170.857V48.03H155.292Z" fill="url(#gradient)"/>
    </svg> 